# xmcd CD database file
#
# Track frame offsets:
#	150
#	16963
#	37558
#	53966
#	70552
#	92154
#	111955
#	127293
#	143495
#	161737
#	176054
#
# Disc length: 2539 seconds
#
# Revision: 0
# Processed by: cddbd v1.5.2PL0 Copyright (c) Steve Scherf et al.
# Submitted via: jetAudio 7
#
DISCID=8f09e90b
DTITLE=Toby Keith - That Don't Make Me a Bad Guy
DYEAR=1900
DGENRE=Country
TTITLE0=That Don't Make Me a Bad Guy
TTITLE1=Creole Woman
TTITLE2=God Love Her
TTITLE3=Lost You Anyway
TTITLE4=Missing Me Some You
TTITLE5=Hurt A Lot Worse When You Go
TTITLE6=Time That It Would Take
TTITLE7=You Already Love Me
TTITLE8=She Never Cried In Front Of Me
TTITLE9=Cabo San Lucas
TTITLE10=I Got It For You Girl
EXTD=
EXTT0=
EXTT1=
EXTT2=
EXTT3=
EXTT4=
EXTT5=
EXTT6=
EXTT7=
EXTT8=
EXTT9=
EXTT10=
PLAYORDER=
